<svg xmlns="http://www.w3.org/2000/svg" version="1.2" width="1050.633" height="297.676" viewBox="0 0 27797.998 7875.999" preserveAspectRatio="xMidYMid" fill-rule="evenodd" stroke-width="28.222" stroke-linejoin="round"><defs class="ClipPathGroup"><clipPath id="a"><path d="M0 0h29700v21000H0z"/></clipPath></defs><g class="SlideGroup"><g class="Slide" clip-path="url(#a)" transform="translate(-904 -1026)"><g class="Page"><g class="com.sun.star.drawing.ClosedBezierShape"><path class="BoundingBox" fill="none" d="M904 1026h7876v7876H904z"/><path d="M7378 6554c-936-58-1790-557-2285-1336l-113-178 141 101c463 334 1000 516 1547 550 736 46 1490-178 2110-661 10-578-107-1132-325-1633l-11 23c-169 331-399 626-683 876-702 621-1659 872-2559 670l-206-46 170-27c1322-216 2339-1306 2506-2668-385-398-855-715-1383-923l8 24c115 354 161 724 138 1102-59 937-558 1791-1337 2286l-178 113 101-141c782-1087 731-2578-113-3658-578-10-1130 107-1631 325l23 11c331 169 626 399 876 683 621 702 872 1660 671 2561l-46 205-28-170c-216-1322-1306-2340-2667-2507-398 385-715 855-923 1384l24-8c354-115 724-161 1103-138 935 59 1789 558 2284 1337l113 178-141-101c-1087-782-2576-731-3658 113-10 578 108 1130 326 1631l12-23c168-331 398-626 682-876 702-620 1659-871 2560-670l206 45-171 28c-1322 216-2339 1306-2506 2667 385 398 855 715 1383 923l-8-24c-115-354-161-724-137-1102 58-936 557-1790 1336-2285l178-113-101 141c-782 1087-730 2576 113 3657 578 10 1130-107 1631-325l-23-11c-331-169-625-399-876-683-620-702-871-1659-670-2560l46-206 27 171c216 1322 1306 2339 2667 2506 398-385 715-855 924-1383l-25 8c-354 115-724 161-1102 137z" fill="#fff"/></g><g class="com.sun.star.drawing.PolyPolygonShape"><path class="BoundingBox" fill="none" d="M10393 2822h4698v4276h-4698z"/><path d="M13355 4243l-609 1701-617-1719-576-1403h-1160l1786 4274h1134l1765-4245 12-29h-1160l-575 1421z" fill="#fff"/></g><g class="com.sun.star.drawing.PolyPolygonShape"><path class="BoundingBox" fill="none" d="M15783 2813h1067v4267h-1067z"/><path d="M15783 7079h1066V2813h-1066v4266z" fill="#fff"/></g><g class="com.sun.star.drawing.ClosedBezierShape"><path class="BoundingBox" fill="none" d="M17747 2711h3738v4514h-3738z"/><path d="M19694 4452c-505-33-750-177-750-440 0-253 267-397 732-397 431 0 741 114 1008 370l17 16 597-717-15-13c-445-398-916-560-1624-560-430 0-855 107-1164 295-392 237-599 597-599 1041 0 1038 1083 1276 1729 1326 584 34 801 148 801 422 0 102-44 198-125 278-134 131-364 209-599 204-440-8-1111-244-1409-581l-18-21-528 779 12 12c628 666 1296 758 1926 758 559 0 1025-145 1345-418 292-249 453-599 453-985 0-1110-955-1315-1789-1369z" fill="#fff"/></g><g class="com.sun.star.drawing.PolyPolygonShape"><path class="BoundingBox" fill="none" d="M22346 2813h1066v4267h-1066z"/><path d="M22346 7079h1065V2813h-1065v4266z" fill="#fff"/></g><g class="com.sun.star.drawing.ClosedBezierShape"><path class="BoundingBox" fill="none" d="M24357 2701h4345v4490h-4345z"/><path d="M25479 4443c148-494 558-777 1128-777 597 0 978 284 1049 777h-2177zm2693-1127c-366-402-919-614-1598-614-1326 0-2217 893-2217 2223 0 1397 878 2265 2292 2265 704 0 1390-264 1792-689l15-15-684-687-15 16c-238 250-739 385-1091 385-667 0-1127-326-1207-853h3221l2-19c79-863-97-1559-510-2012z" fill="#fff"/></g></g></g></g></svg>